[b][color=black]Source used from The.Vampire.Diaries.S03E10.HDTV.XviD-ASAP

General
The.Vampire.Diaries.S03E10.HDTV.[H.264][MPEG-4]-Sebastian[Ub3r]

Format                           : MPEG-4
Format profile                   : Base Media / Version 2
Codec ID                         : mp42
File size                        : 183 MiB
Duration                         : 42mn 0s
Overall bit rate                 : 608 Kbps
Encoded date                     : UTC 2012-09-16 09:40:04
Tagged date                      : UTC 2012-09-16 09:48:56

Video
ID                               : 1
Format                           : AVC
Format/Info                      : Advanced Video Codec
Format profile                   : Main@L3.0
Format settings, CABAC           : Yes
Format settings, ReFrames        : 4 frames
Codec ID                         : avc1
Codec ID/Info                    : Advanced Video Coding
Duration                         : 42mn 0s
Bit rate mode                    : Variable
Bit rate                         : 475 Kbps
Width                            : 624 pixels
Height                           : 352 pixels
Display aspect ratio             : 16:9
Frame rate mode                  : Variable
Frame rate                       : 23.976 fps
Minimum frame rate               : 23.974 fps
Maximum frame rate               : 90 000.000 fps
Color space                      : YUV
Chroma subsampling               : 4:2:0
Bit depth                        : 8 bits
Scan type                        : Progressive
Bits/(Pixel*Frame)               : 0.090
Stream size                      : 143 MiB (78%)
Writing library                  : x264 core 120
Encoded date                     : UTC 2012-09-16 09:40:04
Tagged date                      : UTC 2012-09-16 09:48:55

Audio
ID                               : 2
Format                           : AAC
Format/Info                      : Advanced Audio Codec
Format profile                   : LC
Codec ID                         : 40
Duration                         : 42mn 0s
Bit rate mode                    : Variable
Bit rate                         : 128 Kbps
Maximum bit rate                 : 247 Kbps
Channel(s)                       : 2 channels
Channel positions                : Front: L R
Sampling rate                    : 48.0 KHz
Compression mode                 : Lossy
Stream size                      : 38.5 MiB (21%)
Encoded date                     : UTC 2012-09-16 09:40:04
Tagged date                      : UTC 2012-09-16 09:48:54

Snapshots:[/color][/b]
[IMG]http://imageshack.us/a/img577/5879/thevampirediariess03e10.jpg[/IMG]

[img]http://kastatic.com/i2/users/133df62bbf28e62494bb17fe11078f1a.gif[/img][img]http://kastatic.com/i2/users/133df62bbf28e62494bb17fe11078f1a.gif[/img]
